#!OML:ASF F:\twosubjects\two\Thursday\Session 1\Rory.ASF
:FULLY-SPECIFIED
:DEGREES
339
root 12.2023 16.5191 -0.202642 -17.0567 -78.6909 27.4601
lowerback 29.3168 1.44672 -2.58493
upperback 14.1576 -0.21125 -1.93919
thorax -0.200795 -0.67001 -0.588173
lowerneck -6.67059 13.1164 10.1548
upperneck -14.1538 15.385 -25.4059
head 0.0639327 7.86272 -8.81329
rclavicle -9.19379e-015 -8.79622e-015
rhumerus -76.0448 -28.1928 -35.1647
rradius 12.4841
rwrist 72.9066
rhand -27.2396 26.6891
rfingers 7.12502
rthumb -0.651516 -3.28964
lclavicle -9.19379e-015 -8.79622e-015
lhumerus -68.9547 -0.0345888 80.0751
lradius 18.5806
lwrist -37.9605
lhand 11.1529 25.7824
lfingers 7.12502
lthumb 36.219 52.0448
rfemur -45.7243 -6.58798 11.1714
rtibia 67.2802
rfoot -24.6579 -8.71503
rtoes -23.8107
lfemur -41.5911 11.3867 -11.6132
ltibia 65.6854
lfoot -18.0475 10.3003
ltoes -7.36984
340
root 12.2091 16.5522 -0.260474 -14.3826 -79.0318 24.9332
lowerback 29.1371 1.36749 -2.04292
upperback 14.0492 -0.143576 -1.70336
thorax -0.246635 -0.611556 -0.656279
lowerneck -6.46398 13.2733 10.4589
upperneck -13.9264 15.6439 -25.766
head 0.208709 7.99329 -8.94273
rclavicle -1.25731e-014 -1.17283e-014
rhumerus -77.2096 -28.9337 -32.7955
rradius 12.4884
rwrist 74.6293
rhand -27.3347 25.6978
rfingers 7.12502
rthumb -0.743323 -4.28068
lclavicle -1.25731e-014 -1.17283e-014
lhumerus -68.9846 0.279405 79.7821
lradius 18.5502
lwrist -38.364
lhand 10.6972 25.1445
lfingers 7.12502
lthumb 35.7873 51.513
rfemur -45.9487 -7.1384 12.1752
rtibia 66.9482
rfoot -24.253 -7.81705
rtoes -24.0927
lfemur -42.2881 12.2554 -12.2308
ltibia 66.4472
lfoot -18.2466 8.60673
ltoes -5.10245
341
root 12.2197 16.6079 -0.31875 -12.9789 -79.1748 23.8088
lowerback 28.9937 1.37804 -1.97341
upperback 13.8906 -0.0744411 -1.42366
thorax -0.36422 -0.575305 -0.406868
lowerneck -6.63798 13.4237 10.6847
upperneck -13.3784 15.9292 -26.0955
head 0.502947 8.09788 -9.00637
rclavicle -2.77305e-014 1.39149e-015
rhumerus -78.2915 -29.5141 -30.5265
rradius 12.4782
rwrist 76.2144
rhand -27.7188 24.4914
rfingers 7.12502
rthumb -1.11437 -5.48539
lclavicle -2.77305e-014 1.39149e-015
lhumerus -68.9674 0.552712 79.6968
lradius 18.4621
lwrist -38.8008
lhand 10.47 24.1999
lfingers 7.12502
lthumb 35.5719 50.6205
rfemur -46.2679 -7.86269 12.747
rtibia 66.6308
rfoot -23.7479 -6.01493
rtoes -21.7181
lfemur -42.9343 12.7581 -13.1411
ltibia 66.8997
lfoot -18.931 7.07151
ltoes -1.44716
342
root 12.2287 16.6591 -0.372542 -14.3339 -79.2683 25.2621
lowerback 29.0024 1.49096 -2.33199
upperback 13.8643 -0.0162719 -1.31688
thorax -0.398359 -0.568247 -0.101331
lowerneck -6.80314 13.5792 10.6478
upperneck -13.1258 16.1837 -26.25
head 0.661755 8.20713 -8.99274
rclavicle 3.06128e-014 5.96354e-015
rhumerus -78.374 -29.6934 -30.2104
rradius 12.5038
rwrist 76.3653
rhand -28.102 23.9778
rfingers 7.12502
rthumb -1.48439 -5.99676
lclavicle 3.06128e-014 5.96354e-015
lhumerus -68.8769 0.431081 80.5828
lradius 18.6956
lwrist -38.0576
lhand 10.4517 25.6043
lfingers 7.12502
lthumb 35.5546 52.029
rfemur -46.4161 -8.6293 12.7038
rtibia 66.45
rfoot -23.0015 -4.03698
rtoes -19.0748
lfemur -43.1825 13.1862 -14.5144
ltibia 67.0904
lfoot -19.1618 6.29752
ltoes -3.55415
343
root 12.2349 16.7053 -0.426002 -14.9712 -79.5345 25.9084
lowerback 28.9577 1.51949 -2.39973
upperback 13.8877 -0.00199127 -1.31583
thorax -0.3518 -0.567952 -0.0658496
lowerneck -6.65817 13.7901 10.7975
upperneck -13.208 16.4682 -26.5383
head 0.714134 8.36395 -9.07985
rclavicle 3.20043e-014 -2.70347e-014
rhumerus -78.5826 -30.0084 -29.4482
rradius 12.4532
rwrist 77.4204
rhand -28.755 24.7594
rfingers 7.12502
rthumb -2.11514 -5.20985
lclavicle 3.20043e-014 -2.70347e-014
lhumerus -68.8129 0.345475 81.2145
lradius 18.9358
lwrist -37.3265
lhand 9.81409 26.7175
lfingers 7.12502
lthumb 34.95 53.2852
rfemur -46.5068 -9.20729 12.8235
rtibia 66.3249
rfoot -22.0617 -2.52587
rtoes -19.8506
lfemur -43.2021 13.5168 -15.492
ltibia 67.0012
lfoot -19.1585 5.66005
ltoes -5.4086
344
root 12.2442 16.7561 -0.480098 -14.089 -79.9055 25.1276
lowerback 28.8193 1.31859 -2.43282
upperback 13.7659 -0.237692 -1.11414
thorax -0.424546 -0.689239 0.241099
lowerneck -5.9556 14.1275 10.4075
upperneck -13.5984 16.9188 -26.9263
head 0.577869 8.68361 -9.14717
rclavicle 1.33186e-014 -2.00773e-014
rhumerus -78.6759 -30.1107 -27.5308
rradius 12.312
rwrist 79.708
rhand -29.9646 25.6578
rfingers 7.12502
rthumb -3.28326 -4.29665
lclavicle 1.33186e-014 -2.00773e-014
lhumerus -69.1287 1.31517 81.3771
lradius 19.0879
lwrist -37.2368
lhand 8.87361 26.5284
lfingers 7.12502
lthumb 34.0572 53.2995
rfemur -46.7612 -9.63695 13.2027
rtibia 66.2244
rfoot -21.0291 -0.867241
rtoes -21.171
lfemur -43.2937 13.7735 -15.9874
ltibia 66.7256
lfoot -19.289 4.78494
ltoes -5.90664
345
root 12.2579 16.8065 -0.527719 -13.0633 -80.1616 24.2508
lowerback 28.7608 1.31772 -2.1176
upperback 13.6326 -0.142226 -1.02685
thorax -0.552851 -0.62234 0.131606
lowerneck -5.61011 14.2961 10.6887
upperneck -13.6213 17.162 -27.3777
head 0.643142 8.83125 -9.32137
rclavicle -4.06515e-014 -4.19436e-014
rhumerus -78.6392 -29.9798 -27.879
rradius 12.3264
rwrist 79.6389
rhand -31.2447 24.6033
rfingers 7.12502
rthumb -4.51938 -5.3285
lclavicle -4.06515e-014 -4.19436e-014
lhumerus -69.1971 1.21404 81.4535
lradius 19.2733
lwrist -37.2736
lhand 8.59933 26.4972
lfingers 7.12502
lthumb 33.7967 53.3259
rfemur -47.0633 -10.044 13.4773
rtibia 66.1422
rfoot -19.9174 1.1137
rtoes -20.4039
lfemur -43.3796 13.8049 -16.432
ltibia 66.2541
lfoot -19.3784 4.35637
ltoes -8.07065
346
root 12.2708 16.8542 -0.568185 -11.2031 -80.5203 22.4751
lowerback 28.5895 1.32877 -1.61525
upperback 13.5977 0.00621018 -0.977484
thorax -0.517383 -0.524881 -0.14259
lowerneck -5.15807 14.4724 11.1394
upperneck -13.7323 17.4118 -27.8148
head 0.684257 8.98884 -9.52777
rclavicle -1.0138e-014 -2.8128e-014
rhumerus -77.4355 -29.2387 -30.9073
rradius 12.4413
rwrist 77.5169
rhand -31.5123 22.46
rfingers 7.12502
rthumb -4.77783 -7.46616
lclavicle -1.0138e-014 -2.8128e-014
lhumerus -69.0565 1.33142 80.9233
lradius 19.291
lwrist -38.023
lhand 9.33425 26.7354
lfingers 7.12502
lthumb 34.4946 53.408
rfemur -47.2843 -10.4307 13.8594
rtibia 66.0498
rfoot -18.6458 3.26634
rtoes -20.0736
lfemur -43.2748 13.5555 -16.5535
ltibia 65.5516
lfoot -19.4563 4.75627
ltoes -8.32214
347
root 12.2797 16.8979 -0.601467 -10.6316 -80.9484 21.8569
lowerback 28.4987 1.37745 -1.32758
upperback 13.5991 0.140463 -0.865843
thorax -0.474967 -0.451018 -0.222146
lowerneck -4.78671 14.6265 11.1251
upperneck -13.762 17.6481 -28.0969
head 0.69338 9.14561 -9.60929
rclavicle 2.60408e-014 0
rhumerus -76.6826 -28.7357 -32.3685
rradius 12.5209
rwrist 76.9027
rhand -30.9723 21.1235
rfingers 7.12502
rthumb -4.25637 -8.81375
lclavicle 2.60408e-014 0
lhumerus -68.9155 1.8995 80.2596
lradius 19.1277
lwrist -39.1297
lhand 10.3215 26.758
lfingers 7.12502
lthumb 35.4312 53.2122
rfemur -47.3518 -10.8149 13.8765
rtibia 65.9387
rfoot -17.236 6.07852
rtoes -19.8917
lfemur -42.809 13.3014 -16.7173
ltibia 64.5999
lfoot -19.6507 5.99579
ltoes -6.30661
348
root 12.2856 16.9389 -0.631671 -12.6115 -81.2583 23.8335
lowerback 28.419 1.46253 -1.3659
upperback 13.5731 0.238862 -0.879268
thorax -0.46921 -0.403704 -0.241846
lowerneck -4.62457 14.7978 11.2318
upperneck -13.6052 17.9299 -28.3945
head 0.814026 9.29498 -9.68137
rclavicle -2.8625e-014 -1.95803e-014
rhumerus -76.7995 -28.7048 -32.0107
rradius 12.4611
rwrist 77.8883
rhand -30.7806 21.0076
rfingers 7.12502
rthumb -4.07131 -8.93328
lclavicle -2.8625e-014 -1.95803e-014
lhumerus -68.9352 1.94004 80.3621
lradius 19.2583
lwrist -39.2466
lhand 10.4153 26.5972
lfingers 7.12502
lthumb 35.5201 53.0302
rfemur -47.4206 -11.0563 13.2255
rtibia 65.8259
rfoot -15.5857 9.42873
rtoes -17.1533
lfemur -42.1833 13.0101 -17.2092
ltibia 63.4184
lfoot -20.0479 8.2269
ltoes -5.51916
349
root 12.2921 16.9823 -0.66551 -14.2701 -81.6293 25.5672
lowerback 28.1689 1.60842 -1.38067
upperback 13.5789 0.419807 -0.994799
thorax -0.349208 -0.310703 -0.408556
lowerneck -4.39794 15.0042 11.7441
upperneck -13.5622 18.2462 -28.7986
head 0.957239 9.45896 -9.85035
rclavicle 1.53064e-014 5.76476e-015
rhumerus -77.6549 -29.2081 -30.6544
rradius 12.3771
rwrist 79.8147
rhand -31.0458 22.1592
rfingers 7.12502
rthumb -4.3274 -7.77661
lclavicle 1.53064e-014 5.76476e-015
lhumerus -68.9143 1.46645 80.7942
lradius 19.5564
lwrist -38.6478
lhand 10.6707 26.3978
lfingers 7.12502
lthumb 35.7622 52.7724
rfemur -47.5501 -10.9707 12.5531
rtibia 65.6609
rfoot -13.5907 12.7607
rtoes -13.216
lfemur -41.528 12.4452 -17.32
ltibia 62.0985
lfoot -20.7676 10.0086
ltoes -2.701
350
root 12.2992 17.0183 -0.700205 -15.6738 -82.0062 27.0032
lowerback 27.9707 1.69969 -1.26523
upperback 13.5926 0.561419 -1.06943
thorax -0.241546 -0.233159 -0.593288
lowerneck -4.12036 15.1903 11.641
upperneck -13.6357 18.5177 -28.9984
head 0.958615 9.63152 -9.88138
rclavicle -7.7526e-015 1.5704e-014
rhumerus -78.0562 -29.4745 -29.9456
rradius 12.2577
rwrist 81.021
rhand -30.9321 21.8202
rfingers 7.12502
rthumb -4.21755 -8.11778
lclavicle -7.7526e-015 1.5704e-014
lhumerus -68.857 1.20245 81.2002
lradius 19.7699
lwrist -37.837
lhand 10.9913 27.1934
lfingers 7.12502
lthumb 36.066 53.4937
rfemur -47.6951 -11.1837 11.9846
rtibia 65.4307
rfoot -11.2753 16.1815
rtoes -12.8155
lfemur -40.7554 11.6538 -17.1246
ltibia 60.7152
lfoot -21.3551 11.0639
ltoes -0.0428229
351
root 12.3042 17.0454 -0.732297 -19.6452 -82.1926 30.9911
lowerback 27.8849 1.7934 -1.4729
upperback 13.5517 0.63118 -1.14024
thorax -0.250605 -0.205012 -0.570121
lowerneck -3.86881 15.3726 11.4358
upperneck -13.5875 18.7993 -29.2972
head 1.00367 9.80683 -9.91916
rclavicle 5.76476e-015 -1.80894e-014
rhumerus -77.2268 -28.8461 -31.3768
rradius 12.1909
rwrist 80.1917
rhand -30.3764 18.9419
rfingers 7.12502
rthumb -3.68097 -11.006
lclavicle 5.76476e-015 -1.80894e-014
lhumerus -68.902 1.1409 81.6239
lradius 19.909
lwrist -37.1228
lhand 10.0843 27.8906
lfingers 7.12502
lthumb 35.2063 54.3983
rfemur -47.8717 -11.7562 11.0006
rtibia 65.1648
rfoot -9.38448 19.5484
rtoes -19.3587
lfemur -39.8892 10.9023 -17.2926
ltibia 59.3473
lfoot -21.5973 12.1505
ltoes -0.132141
352
root 12.3087 17.0755 -0.762989 -23.4626 -82.3925 34.7494
lowerback 27.7842 1.96631 -1.75053
upperback 13.4896 0.787029 -1.21547
thorax -0.278006 -0.13664 -0.534813
lowerneck -3.46126 15.5342 12.0731
upperneck -13.4926 19.0752 -29.9569
head 1.1806 9.96327 -10.203
rclavicle -4.17448e-015 -9.54166e-015
rhumerus -76.4063 -27.9629 -33.2796
rradius 12.26
rwrist 79.0247
rhand -30.7295 16.7619
rfingers 7.12502
rthumb -4.02188 -13.1799
lclavicle -4.17448e-015 -9.54166e-015
lhumerus -69.0116 1.18103 81.3063
lradius 19.8476
lwrist -37.4014
lhand 9.56747 24.9799
lfingers 7.12502
lthumb 34.716 51.6018
rfemur -47.8134 -11.6363 9.88062
rtibia 64.8163
rfoot -8.52749 22.1237
rtoes -29.5069
lfemur -38.8348 10.1598 -17.2796
ltibia 58.0568
lfoot -21.6649 13.0683
ltoes -1.35367
